<svg width="24" height="22" viewBox="0 0 24 22" fill="none" xmlns="http://www.w3.org/2000/svg">
<mask id="path-1-inside-1_47_1929" fill="white">
<path fill-rule="evenodd" clip-rule="evenodd" d="M11.5465 1.17227C13.3808 0.0125429 15.8176 -0.307849 17.9227 0.366779C22.5018 1.84351 23.9233 6.83554 22.6519 10.8077C20.69 17.0463 12.3113 21.6999 11.956 21.8951C11.8296 21.965 11.6897 22 11.5499 22C11.41 22 11.2712 21.9662 11.1449 21.8973C10.7917 21.7044 2.47396 17.1197 0.446695 10.8088C0.445567 10.8088 0.445567 10.8077 0.445567 10.8077C-0.826976 6.83441 0.589969 1.84126 5.16458 0.366779C7.31256 -0.328156 9.65345 -0.0224295 11.5465 1.17227ZM5.68352 1.97776C1.98209 3.17134 1.05251 7.15254 2.05768 10.2922C3.63933 15.2131 9.8881 19.1921 11.5487 20.1769C13.215 19.1819 19.5089 15.159 21.0398 10.2967C22.0449 7.15367 21.112 3.17246 17.4049 1.97776C15.6089 1.40128 13.5139 1.75214 12.0677 2.87125C11.7653 3.10365 11.3457 3.10816 11.0411 2.87802C9.50905 1.72619 7.50773 1.38887 5.68352 1.97776ZM16.3219 4.21814C17.8595 4.71565 18.9369 6.07731 19.0689 7.68717C19.1061 8.15309 18.7598 8.56148 18.2939 8.59871C18.2702 8.60096 18.2476 8.60209 18.2239 8.60209C17.7873 8.60209 17.4173 8.26703 17.3812 7.8248C17.3068 6.89747 16.6863 6.11454 15.8029 5.82912C15.3573 5.68472 15.1136 5.20752 15.2569 4.76416C15.4025 4.31967 15.8751 4.07825 16.3219 4.21814Z"/>
</mask>
<path fill-rule="evenodd" clip-rule="evenodd" d="M11.5465 1.17227C13.3808 0.0125429 15.8176 -0.307849 17.9227 0.366779C22.5018 1.84351 23.9233 6.83554 22.6519 10.8077C20.69 17.0463 12.3113 21.6999 11.956 21.8951C11.8296 21.965 11.6897 22 11.5499 22C11.41 22 11.2712 21.9662 11.1449 21.8973C10.7917 21.7044 2.47396 17.1197 0.446695 10.8088C0.445567 10.8088 0.445567 10.8077 0.445567 10.8077C-0.826976 6.83441 0.589969 1.84126 5.16458 0.366779C7.31256 -0.328156 9.65345 -0.0224295 11.5465 1.17227ZM5.68352 1.97776C1.98209 3.17134 1.05251 7.15254 2.05768 10.2922C3.63933 15.2131 9.8881 19.1921 11.5487 20.1769C13.215 19.1819 19.5089 15.159 21.0398 10.2967C22.0449 7.15367 21.112 3.17246 17.4049 1.97776C15.6089 1.40128 13.5139 1.75214 12.0677 2.87125C11.7653 3.10365 11.3457 3.10816 11.0411 2.87802C9.50905 1.72619 7.50773 1.38887 5.68352 1.97776ZM16.3219 4.21814C17.8595 4.71565 18.9369 6.07731 19.0689 7.68717C19.1061 8.15309 18.7598 8.56148 18.2939 8.59871C18.2702 8.60096 18.2476 8.60209 18.2239 8.60209C17.7873 8.60209 17.4173 8.26703 17.3812 7.8248C17.3068 6.89747 16.6863 6.11454 15.8029 5.82912C15.3573 5.68472 15.1136 5.20752 15.2569 4.76416C15.4025 4.31967 15.8751 4.07825 16.3219 4.21814Z" fill="black"/>
<path d="M11.5465 1.17227L10.4791 2.86361L11.5474 3.53786L12.6152 2.86275L11.5465 1.17227ZM17.9227 0.366779L18.5366 -1.53669L18.5331 -1.53781L17.9227 0.366779ZM22.6519 10.8077L20.7471 10.198L20.744 10.2078L22.6519 10.8077ZM11.956 21.8951L10.9932 20.1421L10.9874 20.1453L11.956 21.8951ZM11.1449 21.8973L10.186 23.6525L10.1882 23.6537L11.1449 21.8973ZM0.446695 10.8088L2.35086 10.1972L1.90488 8.80885H0.446695V10.8088ZM0.445567 10.8077L2.44557 10.8077L2.44556 10.4952L2.35026 10.1977L0.445567 10.8077ZM5.16458 0.366779L5.77813 2.27034L5.78022 2.26967L5.16458 0.366779ZM5.68352 1.97776L6.29733 3.88125L6.29794 3.88105L5.68352 1.97776ZM2.05768 10.2922L0.152917 10.902L0.153613 10.9041L2.05768 10.2922ZM11.5487 20.1769L10.5285 21.8971L11.5522 22.5043L12.5741 21.8941L11.5487 20.1769ZM21.0398 10.2967L19.1348 9.68744L19.1321 9.69604L21.0398 10.2967ZM17.4049 1.97776L18.0184 0.0741758L18.0161 0.0734576L17.4049 1.97776ZM12.0677 2.87125L13.2865 4.45695L13.2916 4.45301L12.0677 2.87125ZM11.0411 2.87802L12.2467 1.28228L12.2429 1.27943L11.0411 2.87802ZM16.3219 4.21814L16.9376 2.31526L16.9286 2.31235L16.9195 2.30952L16.3219 4.21814ZM19.0689 7.68717L21.0626 7.52787L21.0622 7.52374L19.0689 7.68717ZM18.2939 8.59871L18.1346 6.60506L18.1194 6.60627L18.1043 6.60772L18.2939 8.59871ZM17.3812 7.8248L15.3876 7.98487L15.3878 7.98753L17.3812 7.8248ZM15.8029 5.82912L15.1864 7.73172L15.188 7.73224L15.8029 5.82912ZM15.2569 4.76416L13.3562 4.14184L13.3538 4.14916L15.2569 4.76416ZM12.6152 2.86275C13.9498 2.01903 15.7717 1.77764 17.3124 2.27137L18.5331 -1.53781C15.8635 -2.39334 12.8119 -1.99395 10.4777 -0.518212L12.6152 2.86275ZM17.3089 2.27024C20.5136 3.30374 21.7968 6.91856 20.7471 10.198L24.5567 11.4174C26.0498 6.75251 24.4901 0.383294 18.5366 -1.53669L17.3089 2.27024ZM20.744 10.2078C19.9417 12.7591 17.7318 15.1744 15.4285 17.0751C13.1796 18.931 11.1164 20.0744 10.9932 20.1421L12.9188 23.6481C13.1509 23.5206 15.4548 22.2396 17.9745 20.1603C20.4399 18.1257 23.4002 15.095 24.5598 11.4077L20.744 10.2078ZM10.9874 20.1453C11.1622 20.0485 11.3564 20 11.5499 20V24C12.0231 24 12.497 23.8816 12.9246 23.6449L10.9874 20.1453ZM11.5499 20C11.7347 20 11.9261 20.0455 12.1015 20.1409L10.1882 23.6537C10.6163 23.8869 11.0852 24 11.5499 24V20ZM12.1037 20.1422C11.9811 20.0752 9.9354 18.95 7.69563 17.104C5.40547 15.2164 3.18559 12.7956 2.35086 10.1972L-1.45747 11.4205C-0.26493 15.1329 2.68771 18.1599 5.15154 20.1906C7.66574 22.2629 9.95545 23.5266 10.186 23.6525L12.1037 20.1422ZM0.446695 8.80885C0.796548 8.80885 1.19189 8.9021 1.55574 9.14477C1.90704 9.37906 2.11621 9.67707 2.23469 9.91412C2.34927 10.1434 2.39659 10.3484 2.41839 10.4792C2.43008 10.5493 2.43669 10.6122 2.44049 10.6653C2.44241 10.6922 2.44367 10.7175 2.44446 10.7411C2.44485 10.7529 2.44513 10.7644 2.44531 10.7754C2.4454 10.781 2.44546 10.7864 2.4455 10.7918C2.44552 10.7945 2.44554 10.7972 2.44555 10.7998C2.44556 10.8011 2.44556 10.8025 2.44556 10.8038C2.44556 10.8044 2.44557 10.8054 2.44557 10.8057C2.44557 10.8067 2.44557 10.8077 0.445567 10.8077C-1.55443 10.8078 -1.55443 10.8087 -1.55443 10.8097C-1.55443 10.81 -1.55443 10.811 -1.55443 10.8117C-1.55443 10.813 -1.55442 10.8143 -1.55442 10.8156C-1.55441 10.8183 -1.55439 10.8209 -1.55437 10.8236C-1.55433 10.829 -1.55426 10.8345 -1.55417 10.84C-1.55399 10.8511 -1.55372 10.8625 -1.55332 10.8744C-1.55254 10.898 -1.55127 10.9233 -1.54935 10.9502C-1.54555 11.0034 -1.53893 11.0663 -1.52722 11.1366C-1.50539 11.2676 -1.458 11.4729 -1.34328 11.7024C-1.22466 11.9398 -1.01528 12.2381 -0.66366 12.4726C-0.299483 12.7155 0.0962773 12.8088 0.446695 12.8088V8.80885ZM2.35026 10.1977C1.29858 6.91398 2.58103 3.30082 5.77813 2.27034L4.55102 -1.53678C-1.4011 0.381693 -2.95253 6.75484 -1.45913 11.4177L2.35026 10.1977ZM5.78022 2.26967C7.3589 1.75892 9.08371 1.983 10.4791 2.86361L12.6139 -0.519066C10.2232 -2.02786 7.26621 -2.41523 4.54894 -1.53611L5.78022 2.26967ZM5.06972 0.0742807C2.58042 0.876986 0.991741 2.65489 0.230203 4.71036C-0.511898 6.71338 -0.470034 8.95622 0.152918 10.902L3.96244 9.68233C3.58022 8.48848 3.58429 7.17092 3.98105 6.10003C4.35837 5.0816 5.08519 4.27211 6.29733 3.88125L5.06972 0.0742807ZM0.153613 10.9041C1.1112 13.8835 3.39727 16.4019 5.45165 18.2114C7.54842 20.0582 9.64177 21.3712 10.5285 21.8971L12.5689 18.4567C11.7951 17.9977 9.93371 16.8288 8.09553 15.2097C6.21495 13.5533 4.58581 11.6218 3.96175 9.68017L0.153613 10.9041ZM12.5741 21.8941C13.4613 21.3643 15.5659 20.0385 17.6669 18.1879C19.7218 16.3779 22.0151 13.8585 22.9475 10.8973L19.1321 9.69604C18.5335 11.5972 16.9144 13.5203 15.0231 15.1862C13.1779 16.8114 11.3024 17.9946 10.5233 18.4598L12.5741 21.8941ZM22.9447 10.9059C23.5676 8.95827 23.6085 6.71422 22.8643 4.71034C22.1007 2.65399 20.5093 0.876954 18.0184 0.0741771L16.7914 3.88135C18.0075 4.27327 18.7362 5.08419 19.1145 6.10288C19.5123 7.17402 19.5171 8.49207 19.1348 9.68744L22.9447 10.9059ZM18.0161 0.0734576C15.616 -0.696928 12.8304 -0.247751 10.8437 1.2895L13.2916 4.45301C14.1975 3.75202 15.6018 3.4995 16.7937 3.88207L18.0161 0.0734576ZM10.8488 1.28556C11.2505 0.976786 11.8233 0.962325 12.2467 1.28228L9.8354 4.47375C10.8681 5.254 12.2801 5.23051 13.2865 4.45694L10.8488 1.28556ZM12.2429 1.27943C10.192 -0.262527 7.51343 -0.714597 5.0691 0.0744794L6.29794 3.88105C7.50202 3.49235 8.82606 3.7149 9.83918 4.47661L12.2429 1.27943ZM15.7062 6.12101C16.475 6.36977 17.0095 7.04489 17.0756 7.8506L21.0622 7.52374C20.8643 5.10974 19.244 3.06152 16.9376 2.31526L15.7062 6.12101ZM17.0753 7.84647C17.0249 7.21667 17.4941 6.65624 18.1346 6.60506L18.4532 10.5924C20.0255 10.4667 21.1873 9.08952 21.0626 7.52787L17.0753 7.84647ZM18.1043 6.60772C18.1402 6.60429 18.181 6.60209 18.2239 6.60209V10.6021C18.3143 10.6021 18.4002 10.5976 18.4835 10.5897L18.1043 6.60772ZM18.2239 6.60209C18.82 6.60209 19.3252 7.05751 19.3746 7.66208L15.3878 7.98753C15.5094 9.47656 16.7547 10.6021 18.2239 10.6021V6.60209ZM19.3748 7.66473C19.2355 5.93031 18.0703 4.45993 16.4179 3.926L15.188 7.73224C15.3023 7.76916 15.378 7.86463 15.3876 7.98487L19.3748 7.66473ZM16.4195 3.92652C17.0211 4.12147 17.3572 4.7691 17.16 5.37915L13.3538 4.14916C12.8701 5.64593 13.6936 7.24797 15.1864 7.73172L16.4195 3.92652ZM17.1576 5.38647C16.9601 5.98987 16.3142 6.31148 15.7242 6.12675L16.9195 2.30952C15.4361 1.84502 13.8448 2.64947 13.3562 4.14184L17.1576 5.38647Z" fill="#323232" mask="url(#path-1-inside-1_47_1929)"/>
</svg>
