<svg width="48" height="48" viewBox="0 0 48 48" fill="none" xmlns="http://www.w3.org/2000/svg">
<circle r="22.6462" transform="matrix(-1 0 0 1 23.6461 23.6462)" stroke="#323232" stroke-width="2"/>
<path d="M12.269 23.6461L11.5619 22.939L10.8548 23.6461L11.5619 24.3532L12.269 23.6461ZM35.0229 24.6461C35.5752 24.6461 36.0229 24.1984 36.0229 23.6461C36.0229 23.0939 35.5752 22.6461 35.0229 22.6461V24.6461ZM19.1466 15.3544L11.5619 22.939L12.9761 24.3532L20.5608 16.7686L19.1466 15.3544ZM11.5619 24.3532L19.1466 31.9379L20.5608 30.5236L12.9761 22.939L11.5619 24.3532ZM12.269 24.6461H35.0229V22.6461H12.269V24.6461Z" fill="#323232"/>
</svg>
