<svg width="16" height="15" viewBox="0 0 16 15" fill="none" xmlns="http://www.w3.org/2000/svg">
<path d="M12.5667 9.33095C12.3622 9.5291 12.2683 9.81566 12.3149 10.0967L13.0167 13.9806C13.0759 14.3098 12.9369 14.643 12.6614 14.8332C12.3914 15.0306 12.0323 15.0543 11.7378 14.8964L8.24146 13.0728C8.11989 13.0081 7.98489 12.9733 7.84675 12.9694H7.63281C7.55861 12.9804 7.48598 13.0041 7.41967 13.0404L3.92253 14.8727C3.74965 14.9595 3.55387 14.9903 3.36205 14.9595C2.89471 14.8711 2.58289 14.4259 2.65946 13.9562L3.36205 10.0722C3.40862 9.78882 3.31468 9.50068 3.11022 9.29938L0.259621 6.53641C0.0212163 6.3051 -0.0616729 5.95776 0.0472672 5.64436C0.15305 5.33175 0.423032 5.10361 0.749062 5.05229L4.67248 4.48312C4.97089 4.45233 5.23297 4.27077 5.36717 4.00236L7.09601 0.457864C7.13706 0.378922 7.18995 0.306295 7.25389 0.24472L7.32494 0.189461C7.36204 0.148411 7.40467 0.114466 7.45203 0.0868363L7.53808 0.0552595L7.67228 0H8.00463C8.30145 0.0307874 8.56275 0.208407 8.69932 0.473653L10.451 4.00236C10.5774 4.2605 10.8229 4.4397 11.1063 4.48312L15.0297 5.05229C15.3612 5.09966 15.6383 5.32859 15.7481 5.64436C15.8515 5.96092 15.7623 6.30826 15.5191 6.53641L12.5667 9.33095Z" fill="#FBD103"/>
</svg>
